<svg width="191" height="50" viewBox="0 0 191 50" fill="none" xmlns="http://www.w3.org/2000/svg">
<path d="M8.82 40.648C7.308 40.648 5.976 40.384 4.824 39.856C3.672 39.328 2.784 38.596 2.16 37.66C1.536 36.7 1.224 35.596 1.224 34.348C1.224 33.292 1.44 32.332 1.872 31.468C2.328 30.604 2.928 29.92 3.672 29.416C4.44 28.912 5.28 28.66 6.192 28.66C7.032 28.66 7.74 28.876 8.316 29.308C8.892 29.716 9.252 30.292 9.396 31.036C8.148 31.036 7.152 31.372 6.408 32.044C5.664 32.692 5.292 33.58 5.292 34.708C5.292 35.74 5.604 36.568 6.228 37.192C6.852 37.816 7.68 38.128 8.712 38.128C9.984 38.128 11.028 37.708 11.844 36.868C12.684 36.004 13.104 34.924 13.104 33.628C13.104 32.5 12.792 31.432 12.168 30.424C11.544 29.416 10.608 28.192 9.36 26.752C8.064 25.264 7.08 23.992 6.408 22.936C5.76 21.856 5.436 20.68 5.436 19.408C5.436 18.16 5.784 17.044 6.48 16.06C7.176 15.052 8.136 14.26 9.36 13.684C10.584 13.108 11.964 12.82 13.5 12.82C15.444 12.82 16.992 13.276 18.144 14.188C19.32 15.1 19.908 16.324 19.908 17.86C19.908 18.868 19.656 19.684 19.152 20.308C18.648 20.932 17.988 21.244 17.172 21.244C16.26 21.244 15.528 20.872 14.976 20.128C15.432 19.792 15.792 19.348 16.056 18.796C16.32 18.244 16.452 17.668 16.452 17.068C16.452 16.3 16.224 15.688 15.768 15.232C15.312 14.776 14.688 14.548 13.896 14.548C12.936 14.548 12.144 14.896 11.52 15.592C10.92 16.264 10.62 17.128 10.62 18.184C10.62 19.144 10.896 20.044 11.448 20.884C12 21.7 12.864 22.756 14.04 24.052C15 25.084 15.768 25.972 16.344 26.716C16.944 27.46 17.448 28.324 17.856 29.308C18.288 30.268 18.504 31.312 18.504 32.44C18.504 33.976 18.072 35.368 17.208 36.616C16.368 37.864 15.204 38.848 13.716 39.568C12.252 40.288 10.62 40.648 8.82 40.648ZM24.0953 40.216C22.9433 40.216 22.0073 39.856 21.2873 39.136C20.5913 38.416 20.2432 37.336 20.2432 35.896C20.2432 35.296 20.3392 34.516 20.5312 33.556L22.6913 23.44H21.5033L21.7913 22H22.9793L24.0593 17.032L29.3873 16.312L28.1633 22H30.3233L30.0352 23.44H27.8753L25.5713 34.24C25.4753 34.6 25.4273 34.984 25.4273 35.392C25.4273 35.872 25.5353 36.22 25.7513 36.436C25.9913 36.628 26.3753 36.724 26.9033 36.724C27.5993 36.724 28.2473 36.436 28.8473 35.86C29.4473 35.26 29.8793 34.492 30.1433 33.556H31.6553C30.7673 36.148 29.6273 37.912 28.2353 38.848C26.8433 39.76 25.4633 40.216 24.0953 40.216ZM34.4489 40.216C33.0809 40.216 31.9409 39.748 31.0289 38.812C30.1169 37.876 29.6609 36.412 29.6609 34.42C29.6609 32.644 30.0089 30.784 30.7049 28.84C31.4249 26.872 32.4809 25.216 33.8729 23.872C35.2889 22.504 36.9689 21.82 38.9129 21.82C39.8969 21.82 40.6289 21.988 41.1089 22.324C41.5889 22.66 41.8289 23.104 41.8289 23.656V23.908L42.2249 22H47.4089L44.8169 34.24C44.7209 34.6 44.6729 34.984 44.6729 35.392C44.6729 36.424 45.1649 36.94 46.1489 36.94C46.8209 36.94 47.3969 36.628 47.8769 36.004C48.3809 35.38 48.7769 34.564 49.0649 33.556H50.5769C49.6889 36.148 48.5849 37.912 47.2649 38.848C45.9689 39.76 44.6609 40.216 43.3409 40.216C42.3329 40.216 41.5169 39.94 40.8929 39.388C40.2929 38.812 39.9329 37.984 39.8129 36.904C39.1169 37.888 38.3369 38.692 37.4729 39.316C36.6329 39.916 35.6249 40.216 34.4489 40.216ZM36.7889 36.724C37.3889 36.724 37.9769 36.448 38.5529 35.896C39.1529 35.32 39.5609 34.54 39.7769 33.556L41.5049 25.42C41.5049 25.108 41.3849 24.808 41.1449 24.52C40.9049 24.208 40.5329 24.052 40.0289 24.052C39.0689 24.052 38.2049 24.616 37.4369 25.744C36.6689 26.848 36.0689 28.192 35.6369 29.776C35.2049 31.336 34.9889 32.716 34.9889 33.916C34.9889 35.116 35.1569 35.884 35.4929 36.22C35.8529 36.556 36.2849 36.724 36.7889 36.724ZM51.5261 22H56.7101L56.2421 24.232C57.0581 23.512 57.7901 22.96 58.4381 22.576C59.1101 22.192 59.8301 22 60.5981 22C61.3661 22 61.9661 22.264 62.3981 22.792C62.8541 23.32 63.0821 23.956 63.0821 24.7C63.0821 25.396 62.8541 26.008 62.3981 26.536C61.9421 27.064 61.3061 27.328 60.4901 27.328C59.9621 27.328 59.6021 27.208 59.4101 26.968C59.2421 26.704 59.1101 26.332 59.0141 25.852C58.9421 25.54 58.8701 25.312 58.7981 25.168C58.7261 25.024 58.5941 24.952 58.4021 24.952C57.8981 24.952 57.4661 25.06 57.1061 25.276C56.7701 25.468 56.3261 25.816 55.7741 26.32L52.8941 40H47.7101L51.5261 22ZM117.757 47.452C116.005 47.452 114.589 46.996 113.509 46.084C112.453 45.196 111.925 44.02 111.925 42.556C111.925 41.644 112.141 40.804 112.573 40.036C113.005 39.268 113.593 38.668 114.337 38.236C115.081 37.78 115.897 37.552 116.785 37.552C117.697 37.552 118.429 37.78 118.981 38.236C119.557 38.692 119.845 39.292 119.845 40.036C119.845 40.612 119.713 41.068 119.449 41.404C119.233 41.116 118.933 40.888 118.549 40.72C118.189 40.552 117.805 40.468 117.397 40.468C116.677 40.468 116.089 40.708 115.633 41.188C115.177 41.668 114.949 42.292 114.949 43.06C114.949 43.828 115.165 44.452 115.597 44.932C116.053 45.412 116.617 45.652 117.289 45.652C118.129 45.652 118.849 45.28 119.449 44.536C120.049 43.792 120.505 42.688 120.817 41.224L122.617 33.268H122.473C121.825 34.18 121.033 34.876 120.097 35.356C119.185 35.836 118.177 36.076 117.073 36.076C115.681 36.076 114.457 35.704 113.401 34.96C112.345 34.216 111.529 33.16 110.953 31.792C110.401 30.4 110.125 28.792 110.125 26.968C110.125 24.328 110.701 21.928 111.853 19.768C113.005 17.584 114.589 15.868 116.605 14.62C118.621 13.372 120.841 12.748 123.265 12.748C125.305 12.748 126.913 13.192 128.089 14.08C129.289 14.968 129.889 16.18 129.889 17.716C129.889 18.748 129.637 19.576 129.133 20.2C128.629 20.824 127.969 21.136 127.153 21.136C126.697 21.136 126.265 21.04 125.857 20.848C125.473 20.656 125.149 20.38 124.885 20.02C125.317 19.732 125.677 19.276 125.965 18.652C126.277 18.004 126.433 17.356 126.433 16.708C126.433 15.988 126.217 15.436 125.785 15.052C125.377 14.644 124.789 14.44 124.021 14.44C122.629 14.44 121.285 15.064 119.989 16.312C118.693 17.536 117.649 19.144 116.857 21.136C116.065 23.128 115.669 25.216 115.669 27.4C115.669 29.2 115.957 30.58 116.533 31.54C117.109 32.476 117.937 32.944 119.017 32.944C120.313 32.944 121.453 32.26 122.437 30.892C123.445 29.524 124.249 27.532 124.849 24.916L129.097 24.952L126.469 37.048C125.701 40.624 124.609 43.252 123.193 44.932C121.801 46.612 119.989 47.452 117.757 47.452ZM132.702 22H137.886L137.418 24.232C138.234 23.512 138.966 22.96 139.614 22.576C140.286 22.192 141.006 22 141.774 22C142.542 22 143.142 22.264 143.574 22.792C144.03 23.32 144.258 23.956 144.258 24.7C144.258 25.396 144.03 26.008 143.574 26.536C143.118 27.064 142.482 27.328 141.666 27.328C141.138 27.328 140.778 27.208 140.586 26.968C140.418 26.704 140.286 26.332 140.19 25.852C140.118 25.54 140.046 25.312 139.974 25.168C139.902 25.024 139.77 24.952 139.578 24.952C139.074 24.952 138.642 25.06 138.282 25.276C137.946 25.468 137.502 25.816 136.95 26.32L134.07 40H128.886L132.702 22ZM149.045 40.144C147.269 40.144 145.865 39.688 144.833 38.776C143.801 37.864 143.285 36.424 143.285 34.456C143.285 32.824 143.621 31.012 144.293 29.02C144.965 27.028 146.045 25.312 147.533 23.872C149.021 22.408 150.893 21.676 153.149 21.676C156.221 21.676 157.757 23.596 157.757 27.436V27.472C157.829 27.496 157.961 27.508 158.153 27.508C158.945 27.508 159.857 27.304 160.889 26.896C161.921 26.464 162.857 25.948 163.697 25.348L164.021 26.32C163.325 27.064 162.413 27.7 161.285 28.228C160.181 28.732 158.969 29.092 157.649 29.308C157.457 31.492 156.965 33.4 156.173 35.032C155.381 36.664 154.361 37.924 153.113 38.812C151.865 39.7 150.509 40.144 149.045 40.144ZM150.485 36.904C151.061 36.904 151.637 36.58 152.213 35.932C152.789 35.26 153.293 34.36 153.725 33.232C154.157 32.08 154.469 30.808 154.661 29.416C154.013 29.272 153.689 28.768 153.689 27.904C153.689 26.92 154.061 26.272 154.805 25.96C154.757 25.168 154.637 24.628 154.445 24.34C154.253 24.028 153.917 23.872 153.437 23.872C152.645 23.872 151.877 24.448 151.133 25.6C150.389 26.752 149.789 28.132 149.333 29.74C148.877 31.348 148.649 32.764 148.649 33.988C148.649 35.14 148.781 35.92 149.045 36.328C149.309 36.712 149.789 36.904 150.485 36.904ZM163.713 40.216C162.321 40.216 161.229 39.868 160.437 39.172C159.669 38.452 159.285 37.384 159.285 35.968C159.285 35.392 159.345 34.816 159.465 34.24L162.057 22H167.241L164.649 34.24C164.529 34.84 164.469 35.272 164.469 35.536C164.469 36.328 164.877 36.724 165.693 36.724C166.797 36.724 167.817 36.028 168.753 34.636C169.713 33.244 170.481 31.588 171.057 29.668C171.633 27.748 171.921 26.092 171.921 24.7C171.873 24.82 171.717 24.916 171.453 24.988C171.189 25.036 170.961 25.06 170.769 25.06C170.361 25.06 170.037 24.868 169.797 24.484C169.581 24.1 169.473 23.68 169.473 23.224C169.473 22.648 169.653 22.18 170.013 21.82C170.397 21.46 170.961 21.28 171.705 21.28C172.497 21.28 173.073 21.58 173.433 22.18C173.793 22.756 173.973 23.5 173.973 24.412C173.973 26.572 173.601 28.888 172.857 31.36C172.113 33.808 170.973 35.896 169.437 37.624C167.901 39.352 165.993 40.216 163.713 40.216ZM179.592 40.216C177.84 40.216 176.472 39.76 175.488 38.848C174.504 37.912 174.012 36.46 174.012 34.492C174.012 32.836 174.336 31.012 174.984 29.02C175.632 27.028 176.688 25.312 178.152 23.872C179.616 22.408 181.476 21.676 183.732 21.676C186.372 21.676 187.692 22.828 187.692 25.132C187.692 26.476 187.308 27.712 186.54 28.84C185.772 29.968 184.752 30.88 183.48 31.576C182.208 32.248 180.852 32.632 179.412 32.728C179.364 33.256 179.34 33.616 179.34 33.808C179.34 35.8 180.084 36.796 181.572 36.796C182.244 36.796 182.964 36.616 183.732 36.256C184.5 35.896 185.196 35.44 185.82 34.888C185.172 38.44 183.096 40.216 179.592 40.216ZM179.664 31C180.576 30.976 181.428 30.676 182.22 30.1C183.036 29.524 183.684 28.792 184.164 27.904C184.668 26.992 184.92 26.044 184.92 25.06C184.92 24.076 184.62 23.584 184.02 23.584C183.18 23.584 182.34 24.352 181.5 25.888C180.684 27.4 180.072 29.104 179.664 31Z" fill="#1E1E1E"/>
<path d="M88 1.5625C75.0703 1.5625 64.5625 12.0703 64.5625 25C64.5625 37.9297 75.0703 48.4375 88 48.4375C100.93 48.4375 111.438 37.9297 111.438 25C111.438 12.0703 100.93 1.5625 88 1.5625ZM88 3.32031C99.9824 3.32031 109.68 13.0176 109.68 25C109.68 29.5605 108.273 33.7793 105.881 37.2754C104.26 35.3906 103.322 33.6816 102.092 31.3965L106.818 32.2461C104.553 30.0977 102.502 27.334 101.223 24.9609L104.455 25.1074C101.691 23.2324 100.139 21.5234 98.7227 19.209C98.4687 19.6777 98.2441 20.1074 98.0293 20.5371C96.8281 19.1895 95.7344 17.7637 94.9336 16.2793C95.6758 16.4258 96.8184 17.1582 98.3125 16.6309C96.6719 15.0781 95.0508 13.0176 94.123 11.2891C94.6406 11.5918 95.832 11.709 96.6914 11.4453C94.6797 10.0879 93.957 8.7334 92.9219 7.05371C92.0137 8.7334 90.7148 10.4492 89.1523 11.8652C89.7871 11.9434 90.9297 11.5234 91.623 11.0254C91.2422 13.1055 89.709 15.3223 87.8926 16.748C88.918 16.582 89.8262 16.7871 91.0078 16.1816C89.6504 18.2715 88.0391 20.0098 86.0566 21.8359C87.8242 22.0605 90.1582 22.2559 92.4043 22.334L92.375 25.0293C93.2832 25.2344 94.2988 25.332 95.1387 25.166L97.7754 24.9512C96.7891 27.7441 94.5918 30.1855 92.0918 32.1484L96.9941 31.3672C95.3926 33.8379 93.4785 36.1816 91.252 38.3887C90.3633 37.2754 89.5625 36.1328 88.9375 34.9707C90.3145 35.3418 91.584 35.3613 92.7949 35.1562C90.5293 33.0078 88.6055 30.7031 87.3262 28.3301L91.6621 28.8281C88.8984 26.9531 87.2188 24.248 85.8027 21.9336C84.8262 23.75 83.4492 25.8984 81.8672 27.6855C79.9824 25.7812 78.3418 23.7305 77.2383 21.6797L80.4707 21.8262C77.707 19.9512 76.2812 18.0957 74.8652 15.7813C73.6152 18.0957 72.5225 20.0195 70.3711 21.9629C71.7969 22.168 72.7754 21.7188 73.791 21.3184C72.8145 24.1113 70.4424 26.7969 67.9424 28.7598C69.9072 29.043 71.5879 28.3594 73.166 27.6758C71.9619 30.1562 70.5059 32.334 68.4805 34.4531C67.0967 31.5918 66.3203 28.3887 66.3203 25C66.3203 13.0176 76.0176 3.32031 88 3.32031ZM82.5996 6.99902C81.7793 8.32129 80.959 8.83887 79.377 9.91211L81.2324 9.82422C80.5 11.1914 79.3184 12.7832 78.0293 14.0039L80.7344 13.5156C79.8848 15.0977 79.2695 16.2012 77.9316 17.5781C78.6152 17.8613 79.9238 18.0859 81.457 18.2129L81.3496 20.9375L83.0488 20.752L82.9805 18.3008C84.5625 18.3691 86.2227 18.3301 87.5996 18.1543C86.0371 16.709 84.7285 15.1563 83.6543 13.5059L86.4668 13.9551C85.0313 12.8223 83.7715 11.2207 83.2051 9.62207L84.9727 9.9707C83.7422 8.8584 83.3125 8.32129 82.5996 6.99902ZM97.0723 22.3047C96.5352 23.2031 95.9102 24.0527 94.9824 24.9414L94.4551 22.3828C95.4023 22.3926 96.3008 22.3633 97.0723 22.3047ZM78.0391 27.7148L81.291 28.3008C81.0371 28.5645 80.7734 28.8184 80.5098 29.0625L84.25 28.5742C83.6641 30.2246 82.6582 31.7285 81.4082 33.0859C80.041 31.3965 79.1621 29.7949 78.0391 27.7148ZM83.4688 34.9121C81.6035 37.793 80.1289 40.4199 77.4043 42.9395C79.6699 43.2227 82.5313 43.4375 85.3242 43.5254L85.2949 46.5137C78.4492 45.6641 72.5947 41.6211 69.2666 35.9277C70.8818 36.0449 72.5625 36.0742 74.1914 36.0254L74.084 39.8828L77.4922 40.0879L76.7988 35.8984C78.9473 35.5566 81.8574 35.9082 83.4688 34.9121ZM104.455 39.1211C103.684 40.0195 102.834 40.8594 101.926 41.6211L101.506 39.5117C102.58 39.4043 103.586 39.2773 104.455 39.1211ZM92.3164 39.6777C94.4063 39.8145 96.6914 39.8145 98.8594 39.707L98.8105 43.7988C95.832 45.5176 92.4043 46.543 88.752 46.6699L88.1074 43.5645C91.2227 43.5547 93.9473 43.3398 95.2266 42.8125C94.25 41.8164 93.2539 40.7617 92.3164 39.6777Z" fill="#E44848"/>
</svg>
